<svg xmlns="http://www.w3.org/2000/svg" viewBox="0 0 1400 788" role="img" aria-label="Digital privacy protection illustration">
  <defs>
    <linearGradient id="bg" x1="0" x2="1" y1="0" y2="1">
      <stop offset="0" stop-color="#eff6ff"/>
      <stop offset="1" stop-color="#fff1f2"/>
    </linearGradient>
    <linearGradient id="screen" x1="0" x2="1" y1="0" y2="1">
      <stop offset="0" stop-color="#ffffff"/>
      <stop offset="1" stop-color="#dbeafe"/>
    </linearGradient>
  </defs>
  <rect width="1400" height="788" fill="url(#bg)"/>
  <circle cx="1120" cy="180" r="130" fill="#bfdbfe" opacity=".65"/>
  <circle cx="210" cy="630" r="170" fill="#fecdd3" opacity=".55"/>
  <rect x="292" y="124" width="816" height="520" rx="42" fill="#1e293b"/>
  <rect x="334" y="166" width="732" height="436" rx="24" fill="url(#screen)"/>
  <rect x="406" y="236" width="310" height="36" rx="18" fill="#93c5fd"/>
  <rect x="406" y="302" width="520" height="28" rx="14" fill="#cbd5e1"/>
  <rect x="406" y="358" width="420" height="28" rx="14" fill="#cbd5e1"/>
  <rect x="406" y="414" width="470" height="28" rx="14" fill="#cbd5e1"/>
  <path d="M872 324v-48c0-88-62-154-150-154s-150 66-150 154v48h58v-48c0-56 36-98 92-98s92 42 92 98v48z" fill="#0f172a"/>
  <rect x="542" y="308" width="360" height="236" rx="34" fill="#e11d48"/>
  <circle cx="722" cy="416" r="42" fill="#fff7ed"/>
  <rect x="704" y="448" width="36" height="54" rx="18" fill="#fff7ed"/>
  <rect x="520" y="648" width="360" height="28" rx="14" fill="#475569"/>
</svg>
