<svg xmlns="http://www.w3.org/2000/svg" viewBox="0 0 1400 788" role="img" aria-label="Pension and inflation policy illustration">
  <defs>
    <linearGradient id="bg" x1="0" x2="1" y1="0" y2="1">
      <stop offset="0" stop-color="#f0fdf4"/>
      <stop offset="1" stop-color="#fff7ed"/>
    </linearGradient>
    <linearGradient id="card" x1="0" x2="1" y1="0" y2="1">
      <stop offset="0" stop-color="#ffffff"/>
      <stop offset="1" stop-color="#dcfce7"/>
    </linearGradient>
  </defs>
  <rect width="1400" height="788" fill="url(#bg)"/>
  <circle cx="280" cy="220" r="130" fill="#bbf7d0" opacity=".6"/>
  <circle cx="1090" cy="610" r="180" fill="#fed7aa" opacity=".55"/>
  <rect x="250" y="118" width="900" height="552" rx="48" fill="#14532d" opacity=".16"/>
  <rect x="302" y="88" width="796" height="572" rx="42" fill="url(#card)" stroke="#86efac" stroke-width="10"/>
  <rect x="386" y="188" width="628" height="72" rx="36" fill="#16a34a"/>
  <rect x="386" y="316" width="222" height="220" rx="30" fill="#fef3c7"/>
  <rect x="646" y="316" width="368" height="44" rx="22" fill="#bbf7d0"/>
  <rect x="646" y="394" width="286" height="34" rx="17" fill="#d9f99d"/>
  <rect x="646" y="460" width="322" height="34" rx="17" fill="#d9f99d"/>
  <circle cx="497" cy="426" r="78" fill="#f59e0b"/>
  <circle cx="497" cy="426" r="54" fill="#fef9c3"/>
  <path d="M462 426h70M497 392v68" stroke="#92400e" stroke-width="18" stroke-linecap="round"/>
  <path d="M860 572c38-80 80-138 132-174" fill="none" stroke="#16a34a" stroke-width="24" stroke-linecap="round"/>
  <path d="M978 392l22 4-4 22" fill="none" stroke="#16a34a" stroke-width="22" stroke-linecap="round" stroke-linejoin="round"/>
</svg>
