<svg xmlns="http://www.w3.org/2000/svg" viewBox="0 0 1400 788" role="img" aria-label="Agricultural workforce and safety policy illustration">
  <defs>
    <linearGradient id="sky" x1="0" x2="0" y1="0" y2="1">
      <stop offset="0" stop-color="#dbeafe"/>
      <stop offset=".58" stop-color="#fef9c3"/>
      <stop offset="1" stop-color="#dcfce7"/>
    </linearGradient>
  </defs>
  <rect width="1400" height="788" fill="url(#sky)"/>
  <circle cx="1110" cy="150" r="92" fill="#fde68a"/>
  <path d="M0 518c188-84 370-98 548-42 178 56 350 50 516-18 132-54 244-58 336-12v342H0z" fill="#86efac"/>
  <path d="M0 624c220-76 440-76 660 0s466 74 740-6v170H0z" fill="#4ade80"/>
  <g stroke="#166534" stroke-width="10" opacity=".38">
    <path d="M120 720c220-110 436-152 648-126"/>
    <path d="M330 760c206-122 430-176 672-162"/>
    <path d="M720 768c162-92 342-132 540-120"/>
  </g>
  <rect x="202" y="234" width="250" height="260" rx="30" fill="#ffffff" opacity=".9"/>
  <rect x="246" y="292" width="162" height="28" rx="14" fill="#86efac"/>
  <rect x="246" y="354" width="122" height="24" rx="12" fill="#cbd5e1"/>
  <rect x="246" y="410" width="154" height="24" rx="12" fill="#cbd5e1"/>
  <circle cx="700" cy="340" r="72" fill="#facc15"/>
  <rect x="640" y="400" width="120" height="210" rx="54" fill="#2563eb"/>
  <path d="M638 464c-92 22-154 72-186 150" stroke="#2563eb" stroke-width="34" stroke-linecap="round"/>
  <path d="M762 466c90 22 152 72 184 150" stroke="#2563eb" stroke-width="34" stroke-linecap="round"/>
  <circle cx="700" cy="314" r="48" fill="#fed7aa"/>
  <path d="M602 304c42-70 154-70 196 0z" fill="#15803d"/>
  <path d="M922 278h208v142H922z" fill="#f8fafc" stroke="#94a3b8" stroke-width="8"/>
  <path d="M954 344l42 42 94-92" fill="none" stroke="#16a34a" stroke-width="18" stroke-linecap="round" stroke-linejoin="round"/>
</svg>
