<svg xmlns="http://www.w3.org/2000/svg" viewBox="0 0 1400 788" role="img" aria-label="Social connection and welfare support illustration">
  <defs>
    <linearGradient id="bg" x1="0" x2="1" y1="0" y2="1">
      <stop offset="0" stop-color="#fdf2f8"/>
      <stop offset="1" stop-color="#eef2ff"/>
    </linearGradient>
  </defs>
  <rect width="1400" height="788" fill="url(#bg)"/>
  <circle cx="700" cy="394" r="250" fill="#ffffff" opacity=".74"/>
  <path d="M426 392h548M540 264l320 256M860 264L540 520" stroke="#f9a8d4" stroke-width="24" stroke-linecap="round" opacity=".7"/>
  <circle cx="426" cy="392" r="92" fill="#fb7185"/>
  <circle cx="700" cy="216" r="92" fill="#818cf8"/>
  <circle cx="974" cy="392" r="92" fill="#38bdf8"/>
  <circle cx="700" cy="572" r="92" fill="#34d399"/>
  <circle cx="700" cy="392" r="120" fill="#ffffff" stroke="#fda4af" stroke-width="12"/>
  <path d="M652 370c0-34 26-60 60-60 32 0 58 24 58 58 0 70-118 126-118 126S534 438 534 368c0-34 26-58 58-58 34 0 60 26 60 60z" fill="#e11d48" transform="translate(48 12) scale(.92)"/>
  <g fill="#fff">
    <circle cx="426" cy="360" r="30"/>
    <rect x="382" y="398" width="88" height="50" rx="25"/>
    <circle cx="700" cy="184" r="30"/>
    <rect x="656" y="222" width="88" height="50" rx="25"/>
    <circle cx="974" cy="360" r="30"/>
    <rect x="930" y="398" width="88" height="50" rx="25"/>
    <circle cx="700" cy="540" r="30"/>
    <rect x="656" y="578" width="88" height="50" rx="25"/>
  </g>
</svg>
