<svg xmlns="http://www.w3.org/2000/svg" viewBox="0 0 1200 720" role="img" aria-labelledby="title desc">
  <title id="title">Fake news training image 27</title>
  <desc id="desc">Local abstract illustration for a media literacy fake news article.</desc>
  <rect width="1200" height="720" fill="#eef2ff"/>
  <path d="M0 620C170 540 300 600 470 520s310-80 470 0 210 72 260 42v158H0z" fill="#4f46e5" opacity="0.14"/>
  <rect x="150" y="130" width="900" height="460" rx="40" fill="#fff" opacity="0.94"/>
  <circle cx="290" cy="280" r="90" fill="#f97316" opacity="0.8"/>
  <path d="M250 280l32 32 58-72" fill="none" stroke="#fff" stroke-width="28" stroke-linecap="round" stroke-linejoin="round" opacity="0.9"/>
  <rect x="430" y="210" width="520" height="44" rx="22" fill="#4f46e5" opacity="0.82"/>
  <rect x="430" y="300" width="410" height="28" rx="14" fill="#94a3b8" opacity="0.45"/>
  <rect x="430" y="356" width="480" height="28" rx="14" fill="#94a3b8" opacity="0.35"/>
  <g transform="translate(810 420)">
    <circle cx="0" cy="0" r="54" fill="#f97316" opacity="0.9"/>
    <path d="M-22-5h44M0-27v44" stroke="#fff" stroke-width="16" stroke-linecap="round"/>
  </g>
</svg>
