<svg xmlns="http://www.w3.org/2000/svg" viewBox="0 0 1200 720" role="img" aria-labelledby="title desc">
<title id="title">한옥 도서관 이야기 극장</title><desc id="desc">트루핑키스 뉴스에서 AI로 생성한 교육용 대체 이미지입니다.</desc>
<rect width="1200" height="720" fill="#fdf2f8"/><circle cx="1030" cy="120" r="170" fill="#0ea5e9" opacity=".16"/><circle cx="130" cy="630" r="210" fill="#be185d" opacity=".12"/>
<rect x="90" y="90" width="1020" height="540" rx="48" fill="#fff" opacity=".95"/>
<rect x="112" y="112" width="260" height="44" rx="22" fill="#be185d" opacity=".9"/><text x="138" y="141" font-family="Arial, sans-serif" font-size="20" font-weight="800" fill="#fff">AI GENERATED NEWS VISUAL</text>
<text x="112" y="160" font-family="Arial, sans-serif" font-size="34" font-weight="800" fill="#0f172a">한옥 도서관 이야기 극장</text>
<rect x="112" y="500" width="530" height="56" rx="18" fill="#f8fafc"/><text x="138" y="536" font-family="Arial, sans-serif" font-size="24" font-weight="700" fill="#475569">트루핑키스 뉴스 AI 생성 이미지</text>
<path d="M690 250c70-35 130-35 190 0v230c-60-35-120-35-190 0z" fill="#be185d"/><path d="M880 250c70-35 130-35 190 0v230c-60-35-120-35-190 0z" fill="#0ea5e9"/><path d="M880 250v230" stroke="#fff" stroke-width="10" opacity=".8"/>
</svg>
